<svg xmlns="http://www.w3.org/2000/svg" viewBox="0 0 28 28" fill="none" stroke="currentColor" stroke-width="1.5" stroke-linecap="round" stroke-linejoin="round">
  <!-- Centre divider -->
  <line x1="14" y1="5" x2="14" y2="23"/>
  <!-- Left lobe -->
  <path d="M14 8c0 0-2-3-5-2.5S4 8 4 11s2 4 3 5-1 4 2 5 5-1.5 5-3"/>
  <!-- Right lobe -->
  <path d="M14 8c0 0 2-3 5-2.5S24 8 24 11s-2 4-3 5 1 4-2 5-5-1.5-5-3"/>
  <!-- Left fold -->
  <path d="M7 14c2 0 3 1 3 2"/>
  <!-- Right fold -->
  <path d="M21 14c-2 0-3 1-3 2"/>
</svg>
